<svg width="58" height="70" viewBox="0 0 58 70" fill="none" xmlns="http://www.w3.org/2000/svg">
<path d="M36.3217 54.526V52.3327C36.3217 48.4729 37.8897 44.7687 40.6227 42.1659C44.0444 38.9061 45.9267 34.5131 45.9267 29.79C45.9267 20.366 38.2579 12.6973 28.8307 12.6973C28.1863 12.6973 27.5324 12.7322 26.8881 12.8052C18.721 13.7066 12.2171 20.5913 11.76 28.8187C11.4839 33.7799 13.3662 38.6077 16.9244 42.058C19.7272 44.7751 21.3365 48.5206 21.3365 52.3295V54.526C21.3365 56.859 23.2346 58.7571 25.5676 58.7571H32.0905C34.4235 58.7571 36.3217 56.859 36.3217 54.526ZM33.211 54.526C33.211 55.145 32.7095 55.6465 32.0937 55.6465H25.5676C24.9518 55.6465 24.4503 55.1418 24.4503 54.526V52.3295C24.4503 47.6858 22.495 43.1277 19.0923 39.8234C16.1816 37.0016 14.6422 33.053 14.8675 28.9933C15.2389 22.2641 20.5556 16.6364 27.2309 15.8968C27.7642 15.8397 28.3006 15.8079 28.8307 15.8079C36.5439 15.8079 42.816 22.08 42.816 29.7932C42.816 33.6529 41.2766 37.246 38.4801 39.9123C35.1314 43.1023 33.2142 47.6286 33.2142 52.3327V54.526H33.211Z" fill="black"/>
<path d="M33.8938 60.293H23.765C23.1207 60.293 22.6001 60.8135 22.6001 61.4579C22.6001 62.1054 23.1207 62.626 23.765 62.626H33.8938C34.5381 62.626 35.0619 62.1054 35.0619 61.4579C35.0619 60.8135 34.5381 60.293 33.8938 60.293Z" fill="black"/>
<path d="M35.0619 65.1466C35.0619 64.5022 34.5381 63.9785 33.8938 63.9785H23.765C23.1207 63.9785 22.6001 64.5022 22.6001 65.1466C22.6001 65.7909 23.1207 66.3115 23.765 66.3115H33.8938C34.5381 66.3115 35.0619 65.7909 35.0619 65.1466Z" fill="black"/>
<mask id="mask0_855_2828" style="mask-type:luminance" maskUnits="userSpaceOnUse" x="0" y="26" width="11" height="5">
<path d="M0 26.8145H10.0811V30.0648H0V26.8145Z" fill="white"/>
</mask>
<g mask="url(#mask0_855_2828)">
<path d="M1.39343 29.7619H8.11631C8.76384 29.7619 9.2844 29.2382 9.2844 28.5939C9.2844 27.9495 8.76384 27.4258 8.11631 27.4258H1.39343C0.749078 27.4258 0.228516 27.9495 0.228516 28.5939C0.228516 29.2382 0.749078 29.7619 1.39343 29.7619Z" fill="black"/>
</g>
<mask id="mask1_855_2828" style="mask-type:luminance" maskUnits="userSpaceOnUse" x="48" y="26" width="10" height="5">
<path d="M48.2725 26.8145H57.5791V30.0648H48.2725V26.8145Z" fill="white"/>
</mask>
<g mask="url(#mask1_855_2828)">
<path d="M57.4331 28.5939C57.4331 27.9495 56.9093 27.4258 56.265 27.4258H49.5421C48.8978 27.4258 48.374 27.9495 48.374 28.5939C48.374 29.2382 48.8978 29.7619 49.5421 29.7619H56.265C56.9093 29.7619 57.4331 29.2382 57.4331 28.5939Z" fill="black"/>
</g>
<path d="M27.6626 1.16808V7.88773C27.6626 8.53207 28.1832 9.05581 28.8307 9.05581C29.475 9.05581 29.9956 8.53207 29.9956 7.88773V1.16808C29.9956 0.520558 29.475 0 28.8307 0C28.1832 0 27.6626 0.520558 27.6626 1.16808Z" fill="black"/>
<path d="M47.4063 8.37796L42.6514 13.1296C42.1943 13.5835 42.1943 14.3231 42.6514 14.7802C42.8799 15.0087 43.1783 15.1198 43.4767 15.1198C43.7751 15.1198 44.0734 15.0087 44.302 14.7802L49.0569 10.0253C49.5108 9.57144 49.5108 8.83186 49.0569 8.37796C48.5998 7.92089 47.8602 7.92089 47.4063 8.37796Z" fill="black"/>
<path d="M15.0073 42.4127C14.5534 41.9588 13.8138 41.9588 13.3599 42.4127L8.60502 47.1675C8.14794 47.6214 8.14794 48.361 8.60502 48.8149C8.83356 49.0435 9.13193 49.1577 9.4303 49.1577C9.72867 49.1577 10.027 49.0435 10.2556 48.8149L15.0105 44.0632C15.4644 43.6093 15.4644 42.8698 15.0073 42.4127Z" fill="black"/>
<path d="M13.36 14.7802C13.5853 15.0087 13.8869 15.1198 14.1853 15.1198C14.4836 15.1198 14.782 15.0087 15.0105 14.7802C15.4644 14.3231 15.4644 13.5835 15.0105 13.1296L10.2556 8.37796C9.79856 7.92089 9.06216 7.92089 8.60508 8.37796C8.15117 8.83186 8.15117 9.57144 8.60508 10.0253L13.36 14.7802Z" fill="black"/>
<path d="M47.4059 48.8149C47.6312 49.0435 47.9328 49.1577 48.2312 49.1577C48.5295 49.1577 48.8279 49.0435 49.0564 48.8149C49.5103 48.361 49.5103 47.6214 49.0564 47.1675L44.3015 42.4127C43.8445 41.9588 43.1081 41.9588 42.651 42.4127C42.1971 42.8698 42.1971 43.6093 42.651 44.0632L47.4059 48.8149Z" fill="black"/>
<mask id="mask2_855_2828" style="mask-type:luminance" maskUnits="userSpaceOnUse" x="24" y="67" width="9" height="3">
<path d="M24.7075 67.4453H32.8334V70.0005H24.7075V67.4453Z" fill="white"/>
</mask>
<g mask="url(#mask2_855_2828)">
<path d="M32.5289 68.8329C32.5289 68.1885 32.0051 67.668 31.3608 67.668H26.298C25.6536 67.668 25.1299 68.1885 25.1299 68.8329C25.1299 69.4772 25.6536 70.001 26.298 70.001H31.3608C32.0051 70.001 32.5289 69.4772 32.5289 68.8329Z" fill="black"/>
</g>
</svg>
