<svg width="70" height="54" viewBox="0 0 70 54" fill="none" xmlns="http://www.w3.org/2000/svg">
<mask id="mask0_855_2859" style="mask-type:luminance" maskUnits="userSpaceOnUse" x="0" y="0" width="70" height="54">
<path d="M0 0H70V53.3552H0V0Z" fill="white"/>
</mask>
<g mask="url(#mask0_855_2859)">
<path d="M69.5687 15.1383C69.9506 14.7592 69.9506 14.1437 69.5687 13.7673C69.1895 13.3881 68.5713 13.3854 68.1921 13.7673L52.0886 29.8022L38.3672 16.1412C38.3645 16.1357 38.3617 16.1357 38.359 16.1302C38.3425 16.1165 38.3287 16.1027 38.3122 16.0918C38.304 16.0835 38.293 16.0753 38.2848 16.067C38.2683 16.056 38.2545 16.045 38.2408 16.0341C38.2271 16.0258 38.2161 16.0176 38.2023 16.0093C38.1914 16.0011 38.1776 15.9928 38.1639 15.9873C38.1501 15.9791 38.1337 15.9681 38.1199 15.9626C38.1089 15.9544 38.0952 15.9516 38.0842 15.9461C38.0677 15.9379 38.0512 15.9296 38.032 15.9214C38.021 15.9187 38.01 15.9159 37.999 15.9104C37.9798 15.9049 37.9633 15.8994 37.9441 15.8939C37.9303 15.8884 37.9193 15.8857 37.9056 15.8829C37.8891 15.8802 37.8726 15.8747 37.8534 15.8719C37.8397 15.8692 37.8232 15.8665 37.8067 15.8665C37.793 15.8637 37.7792 15.861 37.7627 15.861C37.7435 15.8582 37.727 15.8582 37.7078 15.8582C37.694 15.8582 37.6831 15.8555 37.6721 15.8555C37.6501 15.8555 37.6309 15.8582 37.6116 15.8582C37.6006 15.861 37.5896 15.861 37.5786 15.861C37.5594 15.8637 37.5374 15.8665 37.5182 15.8692C37.5072 15.8719 37.4962 15.8719 37.4825 15.8747C37.466 15.8802 37.4495 15.8829 37.433 15.8884C37.4165 15.8912 37.4028 15.8967 37.3891 15.8994C37.3753 15.9049 37.3616 15.9104 37.3479 15.9132C37.3314 15.9214 37.3121 15.9269 37.2956 15.9351C37.2847 15.9379 37.2737 15.9434 37.2627 15.9489C37.2434 15.9571 37.2242 15.9681 37.2077 15.9764C37.2022 15.9791 37.1995 15.9819 37.1967 15.9819L32.1302 18.8531C30.6877 19.6004 29.0474 19.7213 27.5088 19.1965C26.1954 18.7459 25.1129 17.8777 24.404 16.7182C25.5195 15.8115 28.2451 13.7646 32.2346 11.8632C33.3172 11.3494 34.5371 11.2011 35.7598 11.2698C35.8037 11.278 35.8477 11.2807 35.8916 11.2807C35.8944 11.2807 35.8999 11.2807 35.9026 11.2807C39.6009 11.539 43.2936 13.7398 43.3431 13.7701C43.7332 14.0036 44.2333 13.9404 44.5492 13.6162L56.144 1.75215C56.5204 1.36749 56.5122 0.752037 56.1248 0.378366C55.7401 0.00469612 55.1219 0.012939 54.7482 0.3976L43.6755 11.7286C42.3567 11.028 39.3371 9.60473 36.1472 9.3547C30.2206 6.47524 24.0578 7.96717 22.1208 8.5634L16.0459 2.51049C15.664 2.13132 15.0485 2.13132 14.6666 2.51049C14.2847 2.88965 14.2847 3.50511 14.6666 3.88427L21.1701 10.3603C21.4394 10.6296 21.846 10.7175 22.2032 10.5829C22.2609 10.5609 26.7724 8.91509 31.806 9.93169C31.6686 9.98664 31.5312 10.0471 31.3939 10.113C25.8135 12.7699 22.6483 15.6494 22.5164 15.7703C22.2087 16.0533 22.118 16.5039 22.2911 16.8858C23.1896 18.8558 24.8189 20.3285 26.8741 21.0319C27.7121 21.3176 28.5721 21.4605 29.4293 21.4605C30.674 21.4605 31.9076 21.161 33.0506 20.5648C33.0589 20.5593 33.0699 20.5538 33.0781 20.5483L37.5127 18.037L52.8359 33.2971C52.8387 33.2971 52.8387 33.2971 52.8387 33.2971L56.0066 36.454C56.4325 36.8744 56.6661 37.4377 56.6661 38.0366C56.6661 38.6329 56.4325 39.1961 56.0066 39.6193L54.4185 41.2019L50.6186 37.4184L49.657 36.4623C49.2778 36.0831 48.6596 36.0831 48.2805 36.4623C47.8985 36.8415 47.8985 37.4569 48.2805 37.8361L53.369 42.9026C54.2454 43.7763 54.2454 45.1968 53.369 46.0706C52.9431 46.4909 52.3798 46.7245 51.7781 46.7245C51.1791 46.7245 50.6131 46.4909 50.19 46.0678L49.2311 45.1144H49.2284L43.8211 39.7264C43.4392 39.3472 42.821 39.3472 42.4419 39.7264C42.0599 40.1056 42.0599 40.721 42.4419 41.1002L47.8518 46.4854C48.7283 47.3592 48.7283 48.7797 47.8518 49.6534C46.9754 50.5244 45.5466 50.5244 44.6701 49.6534L39.2629 44.2654C39.2602 44.2654 39.2602 44.2654 39.2602 44.2627L37.9825 42.9933C37.6034 42.6141 36.9852 42.6141 36.6033 42.9933C36.2241 43.3724 36.2241 43.9851 36.6033 44.3643L39.6421 47.3921C40.5186 48.2631 40.4664 49.7386 39.5239 50.6755C38.5815 51.6152 37.1006 51.6701 36.2241 50.7964L34.6332 49.2138L35.3668 48.4829C36.1334 47.7191 36.5565 46.7025 36.5565 45.62C36.5565 44.5374 36.1334 43.5208 35.3668 42.7542L35.1828 42.5729C34.3585 41.7514 33.2677 41.3585 32.1879 41.3887C32.3885 40.9051 32.4929 40.3803 32.4929 39.8418C32.4929 38.7593 32.0698 37.7427 31.3032 36.9761L31.1191 36.792C30.4377 36.1133 29.5557 35.7067 28.6051 35.6243C28.715 35.2533 28.7727 34.8659 28.7727 34.4675C28.7727 33.385 28.3495 32.3684 27.5802 31.6046L27.3961 31.4205C26.6296 30.6539 25.6075 30.2335 24.5194 30.2335C24.121 30.2335 23.7336 30.2912 23.3599 30.4011C23.2775 29.456 22.8681 28.5767 22.1867 27.8981L22.0026 27.714C21.2333 26.9502 20.2112 26.5271 19.1259 26.5271C18.0379 26.5271 17.0185 26.9502 16.2492 27.714L14.6474 29.3103L1.79696 16.5121C1.41504 16.133 0.799588 16.133 0.417675 16.5121C0.0385095 16.8913 0.0385095 17.5068 0.417675 17.8859L13.2681 30.6841L12.1855 31.7639C10.5974 33.3438 10.5974 35.9128 12.1855 37.4926L14.5567 39.8528C14.6034 39.9022 14.6584 39.9435 14.7133 39.9819C14.7133 39.9874 14.7133 39.9929 14.7133 40.0012C14.7133 41.0837 15.1364 42.1003 15.9058 42.8641C16.7493 43.7049 17.8565 44.1253 18.9666 44.1253C19.354 44.1253 19.7414 44.0731 20.1178 43.9687C20.181 44.9523 20.5959 45.8672 21.2993 46.5706L21.6482 46.9168C22.3983 47.6614 23.3792 48.0351 24.3601 48.0351C24.7145 48.0351 25.0689 47.9856 25.4124 47.8895C25.4014 48.0131 25.3931 48.1395 25.3931 48.2686C25.3931 49.3484 25.8163 50.3678 26.5856 51.1316L26.7697 51.3157C27.5637 52.1042 28.6051 52.4999 29.6464 52.4999C30.6877 52.4999 31.7291 52.1042 32.5231 51.3157L33.254 50.5876L34.8448 52.1702C35.6416 52.9642 36.6939 53.3571 37.7627 53.3571C38.8865 53.3571 40.0267 52.9203 40.9005 52.0493C41.5324 51.4201 41.9363 50.6535 42.1121 49.8512L43.2936 51.0272C44.1096 51.8405 45.1867 52.2499 46.261 52.2499C47.3353 52.2499 48.4123 51.8405 49.2284 51.0272C49.951 50.3073 50.3549 49.3896 50.4401 48.4472C50.8742 48.5928 51.3275 48.6643 51.7781 48.6643C52.8552 48.6643 53.9295 48.2576 54.7482 47.4416C56.0149 46.1805 56.3006 44.3039 55.6055 42.7652L57.3859 40.993C59.0235 39.361 59.0235 36.7096 57.3859 35.0803L54.2152 31.9233L53.4651 31.1759L69.5687 15.1383ZM13.5621 36.1188C12.7378 35.2973 12.7378 33.9592 13.5621 33.135L17.6285 29.0878C18.0269 28.6894 18.5599 28.4696 19.1259 28.4696C19.6919 28.4696 20.2222 28.6894 20.6234 29.0878L20.8074 29.2719C21.2058 29.6703 21.4284 30.2006 21.4284 30.7638C21.4284 31.3271 21.2058 31.8546 20.8074 32.253L15.2436 37.7921L13.5621 36.1188ZM17.285 41.4931C16.8839 41.0947 16.6641 40.5644 16.6641 40.0012C16.6641 39.4379 16.8839 38.9076 17.285 38.5092L20.4585 35.3495L22.1867 33.6268L23.022 32.7943C23.4231 32.3959 23.9562 32.1761 24.5194 32.1761C25.0854 32.1761 25.6184 32.3959 26.0196 32.7943L26.2009 32.9756C26.6021 33.374 26.8219 33.9043 26.8219 34.4675C26.8219 35.0308 26.6021 35.5611 26.2009 35.9595L20.6481 41.4931C19.7194 42.4163 18.211 42.4163 17.285 41.4931ZM23.0275 45.5458L22.6785 45.1968C22.2801 44.7984 22.0603 44.2682 22.0603 43.7049C22.0603 43.1416 22.2801 42.6141 22.6785 42.2157L24.7502 40.1523L26.745 38.1658C27.1461 37.7674 27.6764 37.5476 28.2424 37.5476C28.8084 37.5476 29.3387 37.7674 29.7398 38.1658L29.9239 38.3499C30.3223 38.7483 30.5449 39.2786 30.5449 39.8418C30.5449 40.4051 30.3223 40.9353 29.9239 41.3337L25.6954 45.5458C24.959 46.2766 23.7638 46.2766 23.0275 45.5458ZM28.149 49.9419L27.9649 49.7578C27.5637 49.3594 27.3439 48.8319 27.3439 48.2686C27.3439 47.7054 27.5637 47.1751 27.9649 46.7767L30.8086 43.9439C31.2208 43.5345 31.762 43.3285 32.306 43.3285C32.8473 43.3285 33.3913 43.5345 33.8035 43.9439L33.9876 44.128C34.386 44.5264 34.6085 45.0567 34.6085 45.62C34.6085 46.1832 34.386 46.7135 33.9876 47.1119L32.5671 48.5269C32.5643 48.5269 32.5643 48.5269 32.5643 48.5269L31.1438 49.9419C30.3195 50.7634 28.9732 50.7634 28.149 49.9419Z" fill="black"/>
</g>
</svg>
